<svg xmlns="http://www.w3.org/2000/svg" viewBox="0 0 842.88 602.2"><defs><style>.cls-1{fill:#e8e613;stroke:#231f20;stroke-miterlimit:10;stroke-width:0.99px;}.cls-2{fill:#425fab;}</style></defs><g id="Layer_1" data-name="Layer 1"><rect class="cls-1" x="0.5" y="0.5" width="841.89" height="601.2"/></g><g id="Layer_2" data-name="Layer 2"><path class="cls-2" d="M506,379.13c2.24,0,4-2.56,3.93-5.73s-1.85-5.56-4.1-5.48-3.85,2.54-3.85,5.61S503.78,379.16,506,379.13Z" transform="translate(0.5 3.46)"/><path class="cls-2" d="M337.28,381.2c.16-2.26.31-5.62.31-8.56V332.58h6.74v20.81h.16c2.4-3.69,6.74-6.09,12.78-6.09,9.3,0,15.89,6.85,15.81,16.91,0,11.85-8.45,17.74-16.81,17.74-5.43,0-9.77-1.85-12.56-6.23h-.23l-.31,5.48Zm7.05-13.29a10.24,10.24,0,0,0,.31,2.19,10.37,10.37,0,0,0,10.23,7.06c7.13,0,11.39-5.14,11.39-12.74,0-6.64-3.87-12.33-11.16-12.33a10.69,10.69,0,0,0-10.38,7.4,10.84,10.84,0,0,0-.39,2.47Z" transform="translate(0.5 3.46)"/><path class="cls-2" d="M381.68,358.39c0-3.9-.08-7.26-.31-10.34h6l.23,6.51h.31a11.1,11.1,0,0,1,10.38-7.26,8.12,8.12,0,0,1,1.94.21v5.68a11.37,11.37,0,0,0-2.33-.21c-4.8,0-8.21,3.22-9.14,7.74a15.47,15.47,0,0,0-.31,2.81V381.2h-6.74Z" transform="translate(0.5 3.46)"/><path class="cls-2" d="M414.92,338.74c.08,2.05-1.63,3.7-4.34,3.7a3.83,3.83,0,0,1-4.1-3.7c0-2.12,1.78-3.77,4.26-3.77S414.92,336.62,414.92,338.74Zm-7.59,42.46V348.05h6.82V381.2Z" transform="translate(0.5 3.46)"/><path class="cls-2" d="M446.22,381.2l-.54-4.18h-.23A14.64,14.64,0,0,1,434,382c-7.59,0-11.47-4.72-11.47-9.52,0-8,8.06-12.39,22.55-12.32v-.69c0-2.74-.85-7.67-8.52-7.67a20.46,20.46,0,0,0-9.76,2.47l-1.55-4a25.62,25.62,0,0,1,12.32-2.94c11.46,0,14.25,6.92,14.25,13.56v12.39a41.79,41.79,0,0,0,.62,7.95Zm-1-16.92c-7.44-.13-15.89,1-15.89,7.47,0,3.9,2.95,5.75,6.43,5.75,4.89,0,8-2.74,9.07-5.55a5.66,5.66,0,0,0,.39-1.91Z" transform="translate(0.5 3.46)"/><path class="cls-2" d="M462.81,357c0-3.42-.08-6.23-.31-9h6l.39,5.48h.15c1.86-3.15,6.2-6.23,12.4-6.23,5.19,0,13.25,2.74,13.25,14.11V381.2h-6.82V362.09c0-5.34-2.25-9.79-8.68-9.79a9.57,9.57,0,0,0-9.14,6.16,7.77,7.77,0,0,0-.47,2.81V381.2h-6.81Z" transform="translate(0.5 3.46)"/><path class="cls-2" d="M350.93,268v-12.9c2.07-.35,3.87-.57,5.64-1,8.77-2,11.94-6,11.95-14.94,0-4.65.62-9.4-.13-13.93-1.61-9.66,3.38-15.19,10.81-19.67,8.49-5.12,17.52-8.37,28.13-8.59v14.15c-6.14,2.48-12.35,4.81-18.4,7.51-3.68,1.64-5.45,4.55-5.06,8.93.41,4.61-.51,9.39.21,13.92,1.51,9.37-3.42,14.26-11,17.78-1.44.67-2.86,1.39-5,2.43,1.79.92,2.89,1.58,4.06,2.06,8.27,3.43,13.55,8.68,11.83,18.56-.4,2.25-.06,4.64-.06,7,0,13.5,2.25,16.53,15.35,20.38,2.65.78,5.37,1.29,8.16,2v15C393,325.91,380.83,321.05,371,311c-1.54-1.57-2.25-4.49-2.36-6.83-.31-6.73-.1-13.48-.11-20.22,0-8.75-2.82-12.3-11.52-14.52C355,269,353,268.47,350.93,268Z" transform="translate(0.5 3.46)"/><path d="M413.44,326.56V312.12c6.54-.67,12.91-1.31,19.28-2a26.34,26.34,0,0,0,3.43-.55c18.43-4.32,20.26-6.6,20.25-25.33v-12H423.68V257.93H472v17c0,10,.15,20-.12,30-.06,2.22-1,5.31-2.6,6.45C452.73,323,434.11,327.12,413.44,326.56Z" transform="translate(0.5 3.46)"/><path d="M472,236H457.2a8.31,8.31,0,0,1-.71-2.09c-.6-13.25-.44-13.79-13.41-17.57-9.21-2.69-18.92-3.67-29.24-5.56V197.19c20.11-1.06,38.81,3.11,55.48,14.95a6.64,6.64,0,0,1,2.51,4.48C472.11,222.83,472,229.06,472,236Z" transform="translate(0.5 3.46)"/></g></svg>